<svg width="223" height="36" viewBox="0 0 223 36" fill="none" xmlns="http://www.w3.org/2000/svg">
<g clip-path="url(#clip0_279_2)">
<path d="M52.3776 29.8657V1.67676H62.596C64.8933 1.67676 66.9053 2.04789 68.6344 2.78893C70.3635 3.52996 71.8085 4.53609 72.9707 5.80609C74.1316 7.07608 75.0036 8.56555 75.5853 10.2733C76.1645 11.981 76.456 13.8009 76.456 15.733C76.456 17.876 76.1325 19.8155 75.4857 21.5491C74.8388 23.2827 73.9078 24.7647 72.694 25.9965C71.4789 27.2271 70.0204 28.1802 68.3171 28.8559C66.6151 29.5303 64.7064 29.8681 62.596 29.8681H52.3776V29.8657ZM70.9501 15.7318C70.9501 14.3816 70.7657 13.1375 70.3967 11.9995C70.0265 10.8626 69.4854 9.8824 68.7721 9.06245C68.0589 8.24127 67.182 7.60627 66.1379 7.15623C65.0962 6.70618 63.9144 6.48177 62.5948 6.48177H57.8416V25.0631H62.5948C63.9402 25.0631 65.1344 24.8252 66.1785 24.3492C67.2214 23.8721 68.0921 23.2173 68.7931 22.3838C69.4916 21.5491 70.0265 20.5639 70.3967 19.4258C70.7657 18.289 70.9501 17.0572 70.9501 15.733V15.7318Z" fill="#FBFDFB"/>
<path d="M89.84 30.2627C88.176 30.2627 86.672 29.9778 85.3253 29.4094C83.9799 28.841 82.8313 28.0667 81.8806 27.0852C80.93 26.1074 80.1982 24.9694 79.683 23.6723C79.1689 22.3751 78.9119 21.0127 78.9119 19.5824C78.9119 18.1521 79.1628 16.7045 79.6633 15.3951C80.165 14.0844 80.8906 12.9328 81.8413 11.9415C82.7907 10.9489 83.9467 10.161 85.3056 9.57902C86.6646 8.99828 88.1908 8.70605 89.8793 8.70605C91.5678 8.70605 93.0805 8.99704 94.4136 9.57902C95.7467 10.161 96.8818 10.9427 97.8189 11.9217C98.7561 12.9007 99.4693 14.04 99.9576 15.3347C100.446 16.6318 100.691 17.9819 100.691 19.3839C100.691 19.7279 100.683 20.0595 100.67 20.3764C100.657 20.6945 100.623 20.9596 100.57 21.1705H84.5333C84.612 21.9917 84.81 22.7191 85.1273 23.3541C85.4446 23.9904 85.8517 24.5317 86.3534 24.9817C86.8552 25.433 87.4234 25.777 88.0567 26.0137C88.6913 26.2517 89.3505 26.3713 90.0367 26.3713C91.0919 26.3713 92.0893 26.1136 93.0264 25.597C93.9623 25.0816 94.603 24.401 94.9461 23.5526L99.5001 24.8239C98.7352 26.412 97.514 27.7165 95.8365 28.7337C94.1603 29.7522 92.1594 30.2614 89.8375 30.2614L89.84 30.2627ZM95.2253 17.7168C95.0925 16.1546 94.5181 14.9044 93.5023 13.9636C92.4853 13.0253 91.2505 12.5543 89.8006 12.5543C89.0873 12.5543 88.4207 12.68 87.7997 12.9316C87.1799 13.1831 86.6314 13.5333 86.1567 13.9833C85.682 14.4346 85.2921 14.9759 84.9884 15.6121C84.6834 16.2471 84.5063 16.9487 84.4534 17.7156H95.224L95.2253 17.7168Z" fill="#FBFDFB"/>
<path d="M113.561 30.2627C111.897 30.2627 110.393 29.9778 109.046 29.4094C107.7 28.841 106.551 28.0667 105.601 27.0852C104.652 26.1074 103.919 24.9694 103.404 23.6723C102.889 22.3751 102.631 21.0127 102.631 19.5824C102.631 18.1521 102.882 16.7045 103.384 15.3951C103.886 14.0844 104.612 12.9328 105.562 11.9415C106.511 10.9489 107.667 10.161 109.026 9.57902C110.385 8.99828 111.91 8.70605 113.6 8.70605C115.29 8.70605 116.8 8.99704 118.134 9.57902C119.467 10.161 120.602 10.9427 121.54 11.9217C122.477 12.9007 123.189 14.04 123.678 15.3347C124.168 16.6318 124.411 17.9819 124.411 19.3839C124.411 19.7279 124.404 20.0595 124.39 20.3764C124.378 20.6945 124.345 20.9596 124.291 21.1705H108.253C108.333 21.9917 108.531 22.7191 108.848 23.3541C109.164 23.9904 109.573 24.5317 110.075 24.9817C110.577 25.433 111.145 25.777 111.779 26.0137C112.413 26.2517 113.072 26.3713 113.759 26.3713C114.815 26.3713 115.811 26.1136 116.749 25.597C117.685 25.0816 118.327 24.401 118.669 23.5526L123.223 24.8239C122.458 26.412 121.237 27.7165 119.56 28.7337C117.883 29.7522 115.884 30.2614 113.561 30.2614V30.2627ZM118.946 17.7168C118.813 16.1546 118.239 14.9044 117.223 13.9636C116.206 13.0253 114.971 12.5543 113.52 12.5543C112.808 12.5543 112.141 12.68 111.52 12.9316C110.899 13.1831 110.352 13.5333 109.876 13.9833C109.401 14.4346 109.011 14.9759 108.708 15.6121C108.404 16.2471 108.226 16.9487 108.174 17.7156H118.945L118.946 17.7168Z" fill="#FBFDFB"/>
<path d="M140.091 30.2627C138.454 30.2627 137.029 29.8989 135.815 29.1714C134.6 28.4427 133.649 27.4576 132.964 26.2135V35.9998H127.658V9.06239H132.291V12.6356C133.055 11.4187 134.047 10.4594 135.261 9.75781C136.476 9.05623 137.874 8.70605 139.459 8.70605C140.857 8.70605 142.151 8.99088 143.339 9.55929C144.527 10.1289 145.55 10.8959 146.409 11.8625C147.267 12.8292 147.94 13.966 148.429 15.2767C148.918 16.5862 149.162 17.9708 149.162 19.4258C149.162 20.8807 148.937 22.3505 148.488 23.6747C148.039 24.999 147.412 26.1494 146.608 27.1284C145.802 28.1074 144.847 28.8743 143.738 29.4316C142.628 29.9877 141.414 30.2651 140.095 30.2651L140.091 30.2627ZM138.309 25.7363C139.101 25.7363 139.834 25.5637 140.507 25.2197C141.181 24.8757 141.755 24.4121 142.23 23.8301C142.706 23.2493 143.073 22.5736 143.338 21.8067C143.602 21.0386 143.734 20.2445 143.734 19.4246C143.734 18.5504 143.589 17.7366 143.299 16.9832C143.008 16.2286 142.606 15.5727 142.091 15.0166C141.576 14.4617 140.968 14.024 140.27 13.7071C139.57 13.389 138.81 13.2312 137.992 13.2312C137.491 13.2312 136.975 13.3175 136.447 13.4889C135.92 13.6615 135.431 13.9056 134.983 14.2237C134.532 14.5406 134.13 14.9118 133.775 15.3347C133.418 15.7588 133.148 16.2224 132.963 16.7243V21.6082C133.438 22.7993 134.165 23.7857 135.141 24.5662C136.118 25.3467 137.174 25.7375 138.309 25.7375V25.7363Z" fill="#FBFDFB"/>
<path d="M153.04 29.8657V1.67676H158.505V25.0619H167.103V29.8669H153.04V29.8657Z" fill="#FBFDFB"/>
<path d="M171.322 6.16228V0.883789H176.628V6.16351H171.322V6.16228ZM171.322 29.8655V9.0623H176.628V29.8668H171.322V29.8655Z" fill="#FBFDFB"/>
<path d="M182.687 29.8654V14.2222H179.954V10.1718H182.687V8.90183C182.687 6.30883 183.307 4.25711 184.548 2.74915C185.788 1.24118 187.478 0.485352 189.616 0.485352C191.305 0.485352 193.007 0.895942 194.725 1.71589L193.656 5.72562C193.261 5.51477 192.791 5.33475 192.25 5.18926C191.709 5.04377 191.213 4.97102 190.764 4.97102C188.916 4.97102 187.992 6.21635 187.992 8.70332V10.1718H193.06V14.2222H187.992V29.8654H182.686H182.687Z" fill="#FBFDFB"/>
<path d="M204.666 30.2627C203.002 30.2627 201.498 29.9778 200.15 29.4094C198.805 28.841 197.656 28.0667 196.705 27.0852C195.755 26.1074 195.023 24.9694 194.508 23.6723C193.994 22.3751 193.737 21.0127 193.737 19.5824C193.737 18.1521 193.988 16.7045 194.489 15.3951C194.991 14.0844 195.717 12.9328 196.667 11.9415C197.618 10.9489 198.773 10.161 200.133 9.57902C201.492 8.99828 203.018 8.70605 204.707 8.70605C206.395 8.70605 207.908 8.99704 209.241 9.57902C210.574 10.161 211.708 10.9427 212.646 11.9217C213.583 12.9007 214.295 14.04 214.785 15.3347C215.274 16.6318 215.519 17.9819 215.519 19.3839C215.519 19.7279 215.512 20.0595 215.498 20.3764C215.486 20.6945 215.451 20.9596 215.399 21.1705H199.362C199.441 21.9917 199.639 22.7191 199.956 23.3541C200.273 23.9904 200.68 24.5317 201.182 24.9817C201.684 25.433 202.252 25.777 202.885 26.0137C203.52 26.2517 204.179 26.3713 204.866 26.3713C205.922 26.3713 206.919 26.1136 207.856 25.597C208.793 25.0816 209.434 24.401 209.777 23.5526L214.331 24.8239C213.566 26.412 212.345 27.7165 210.667 28.7337C208.991 29.7522 206.99 30.2614 204.668 30.2614L204.666 30.2627ZM210.051 17.7168C209.919 16.1546 209.344 14.9044 208.328 13.9636C207.311 13.0253 206.077 12.5543 204.627 12.5543C203.912 12.5543 203.247 12.68 202.626 12.9316C202.006 13.1831 201.457 13.5333 200.983 13.9833C200.508 14.4346 200.118 14.9759 199.814 15.6121C199.511 16.2471 199.332 16.9487 199.279 17.7156H210.051V17.7168Z" fill="#FBFDFB"/>
<path d="M218.644 29.8659V24.1484H223V29.8659H218.644Z" fill="#FBFDFB"/>
<path d="M26.3253 11.5275C26.3253 17.8873 21.1847 23.0412 14.8426 23.0412C8.50047 23.0412 3.35864 17.8873 3.35864 11.5275C3.35864 5.16763 8.49924 0.0136719 14.8414 0.0136719C21.1835 0.0136719 26.3241 5.17009 26.3241 11.5275H26.3253Z" fill="#FBFDFB"/>
<path d="M14.8411 30.7878C9.32913 30.7878 4.07538 28.4093 0.42777 24.2615C-0.198203 23.5488 -0.131793 22.4601 0.580266 21.8312C1.28987 21.2012 2.37456 21.2714 3.00422 21.9841C6.00003 25.3897 10.3142 27.3427 14.8411 27.3427C23.5396 27.3427 30.6171 20.2468 30.6171 11.5258C30.6171 8.35819 29.6861 5.30158 27.9238 2.68391C27.3926 1.89479 27.6004 0.82454 28.3875 0.293116C29.1696 -0.239542 30.2396 -0.0311644 30.7696 0.757958C32.9169 3.9465 34.0507 7.67018 34.0507 11.5258C34.0507 22.1456 25.4335 30.7865 14.8399 30.7865L14.8411 30.7878Z" fill="#FBFDFB"/>
<path d="M24.8237 35.9148C24.1522 35.9148 23.5164 35.519 23.2397 34.8618C22.872 33.9852 23.2839 32.9766 24.1571 32.6067C31.7057 29.4243 36.8487 22.3802 37.5854 14.2226C37.669 13.2744 38.5176 12.5802 39.4498 12.6641C40.393 12.7492 41.0904 13.5851 41.0055 14.5333C40.1545 23.9633 34.2096 32.1049 25.489 35.7829C25.2701 35.8754 25.045 35.9173 24.8237 35.9173V35.9148Z" fill="#FBFDFB"/>
</g>
<defs>
<clipPath id="clip0_279_2">
<rect width="223" height="36" fill="white"/>
</clipPath>
</defs>
</svg>
